<svg xmlns="http://www.w3.org/2000/svg" xmlns:xlink="http://www.w3.org/1999/xlink" version="1.1" width="305px" height="310px" viewBox="-0.5 -0.5 305 310"><defs/><g><ellipse cx="151.19" cy="151.35" rx="151.62" ry="151.62" fill="#00478f" stroke="none" pointer-events="none"/><rect x="2.95" y="130.23" width="50" height="18.88" fill="#ffffff" stroke="none" transform="rotate(90,27.95,139.67)" pointer-events="none"/><path d="M 23.39 149.11 L 23.39 130.23 L 75.77 130.23 L 75.77 149.11 Z" fill="#ffffff" stroke="none" transform="translate(49.58,0)scale(-1,1)translate(-49.58,0)rotate(135,49.58,139.67)" pointer-events="none"/><path d="M 37.24 116.53 L 39.98 97.65 L 174.64 97.65 L 171.9 116.53 Z" fill="#ffffff" stroke="none" transform="rotate(-45,105.94,107.09)" pointer-events="none"/><path d="M 86.91 193.07 L 110.2 174.2 L 227.24 174.2 L 203.95 193.07 Z" fill="#ffffff" stroke="none" transform="rotate(90,157.08,183.63)" pointer-events="none"/><rect x="91.66" y="107.37" width="130.85" height="18.88" fill="#ffffff" stroke="none" transform="rotate(90,157.08,116.81)" pointer-events="none"/><path d="M 82.2 183.21 L 105.29 164.33 L 167.04 164.33 L 143.95 183.21 Z" fill="#ffffff" stroke="none" transform="rotate(450,124.62,173.77)" pointer-events="none"/><path d="M 207.4 198 C 195.66 198.11 184.75 192.18 178.81 182.46 C 172.87 172.74 172.81 160.71 178.65 150.93 C 184.48 141.15 195.33 135.12 207.08 135.12 L 207.08 150.84 C 201.2 150.84 195.78 153.86 192.86 158.75 C 189.94 163.63 189.97 169.65 192.94 174.51 C 195.91 179.37 201.37 182.34 207.24 182.28 Z" fill="#ffffff" stroke="none" transform="translate(207.08,0)scale(-1,1)translate(-207.08,0)rotate(-90,207.08,166.56)" pointer-events="none"/><path d="M 253.93 198.07 C 235.89 197.9 221.4 183.77 221.49 166.46 C 221.58 149.15 236.22 135.16 254.26 135.16 L 254.26 150.89 C 245.24 150.89 237.92 157.88 237.87 166.54 C 237.83 175.19 245.08 182.26 254.09 182.35 Z" fill="#ffffff" stroke="none" transform="translate(254.26,0)scale(-1,1)translate(-254.26,0)rotate(90,254.26,166.62)" pointer-events="none"/><path d="M 91.75 150.5 L 112.48 131.62 L 157.5 131.62 L 136.77 150.5 Z" fill="#ffffff" stroke="none" transform="translate(124.63,0)scale(-1,1)translate(-124.63,0)rotate(90,124.63,141.06)" pointer-events="none"/><rect x="100.37" y="146.91" width="48.51" height="18.88" fill="#ffffff" stroke="none" transform="rotate(90,124.63,156.35)" pointer-events="none"/><ellipse cx="230.82" cy="166.7" rx="7.500000000000001" ry="4.58" fill="#ffffff" stroke="none" pointer-events="none"/></g></svg>